<mxfile host="app.diagrams.net" modified="2022-03-23T06:22:07.497Z" agent="5.0 (Macintosh; Intel Mac OS X 10_15_7) AppleWebKit/537.36 (KHTML, like Gecko) Chrome/99.0.4844.74 Safari/537.36" etag="W7p6LSClq4BkcMIEbtA8" version="17.1.3" type="github">
  <diagram id="tZRMh9yKNymB2Suky1sR" name="Page-1">
    <mxGraphModel dx="1186" dy="507" grid="1" gridSize="10" guides="1" tooltips="1" connect="1" arrows="1" fold="1" page="1" pageScale="1" pageWidth="827" pageHeight="1169" math="0" shadow="0">
      <root>
        <mxCell id="0" />
        <mxCell id="1" parent="0" />
        <mxCell id="oHvbMePAb6ydlel4ahxL-3" style="edgeStyle=orthogonalEdgeStyle;rounded=0;orthogonalLoop=1;jettySize=auto;html=1;exitX=0.5;exitY=1;exitDx=0;exitDy=0;entryX=0.5;entryY=0;entryDx=0;entryDy=0;" edge="1" parent="1" source="oHvbMePAb6ydlel4ahxL-1" target="oHvbMePAb6ydlel4ahxL-2">
          <mxGeometry relative="1" as="geometry" />
        </mxCell>
        <mxCell id="oHvbMePAb6ydlel4ahxL-1" value="" style="rounded=1;whiteSpace=wrap;html=1;" vertex="1" parent="1">
          <mxGeometry x="300" y="100" width="120" height="60" as="geometry" />
        </mxCell>
        <mxCell id="oHvbMePAb6ydlel4ahxL-2" value="" style="rounded=1;whiteSpace=wrap;html=1;" vertex="1" parent="1">
          <mxGeometry x="300" y="220" width="120" height="60" as="geometry" />
        </mxCell>
      </root>
    </mxGraphModel>
  </diagram>
</mxfile>
